<svg xmlns="http://www.w3.org/2000/svg" width="42" height="7" viewBox="0 0 42 7">
  <g id="Group_1" data-name="Group 1" transform="translate(-249 -41)">
    <path id="Polygon_21" data-name="Polygon 21" d="M3.5,0,7,7H0Z" transform="translate(249 41)" fill="#fff"/>
    <path id="Polygon_22" data-name="Polygon 22" d="M3.5,0,7,7H0Z" transform="translate(261 48) rotate(180)" fill="#fff"/>
    <path id="Polygon_23" data-name="Polygon 23" d="M3.5,0,7,7H0Z" transform="translate(259 41)" fill="#fff"/>
    <path id="Polygon_24" data-name="Polygon 24" d="M3.5,0,7,7H0Z" transform="translate(271 48) rotate(180)" fill="#fff"/>
    <path id="Polygon_25" data-name="Polygon 25" d="M3.5,0,7,7H0Z" transform="translate(269 41)" fill="#fff"/>
    <path id="Polygon_26" data-name="Polygon 26" d="M3.5,0,7,7H0Z" transform="translate(281 48) rotate(180)" fill="#fff"/>
    <path id="Polygon_27" data-name="Polygon 27" d="M3.5,0,7,7H0Z" transform="translate(269 41)" fill="#fff"/>
    <path id="Polygon_28" data-name="Polygon 28" d="M3.5,0,7,7H0Z" transform="translate(279 41)" fill="#fff"/>
    <path id="Polygon_29" data-name="Polygon 29" d="M3.5,0,7,7H0Z" transform="translate(291 48) rotate(180)" fill="#fff"/>
  </g>
</svg>
