<svg xmlns="http://www.w3.org/2000/svg" width="52" height="61" viewBox="0 0 52 61">
  <g id="Group_14" data-name="Group 14" transform="translate(-31 -29)">
    <circle id="Ellipse_276" data-name="Ellipse 276" cx="3.5" cy="3.5" r="3.5" transform="translate(40 47)" fill="#7b45fd"/>
    <circle id="Ellipse_277" data-name="Ellipse 277" cx="3.5" cy="3.5" r="3.5" transform="translate(49 47)" fill="#fff"/>
    <circle id="Ellipse_278" data-name="Ellipse 278" cx="3.5" cy="3.5" r="3.5" transform="translate(40 56)" fill="#7b45fd"/>
    <circle id="Ellipse_279" data-name="Ellipse 279" cx="3.5" cy="3.5" r="3.5" transform="translate(49 56)" fill="#7b45fd"/>
    <circle id="Ellipse_280" data-name="Ellipse 280" cx="3.5" cy="3.5" r="3.5" transform="translate(40 65)" fill="#7b45fd"/>
    <circle id="Ellipse_281" data-name="Ellipse 281" cx="3.5" cy="3.5" r="3.5" transform="translate(49 65)" fill="#fff"/>
    <circle id="Ellipse_282" data-name="Ellipse 282" cx="3.5" cy="3.5" r="3.5" transform="translate(40 74)" fill="#7b45fd"/>
    <circle id="Ellipse_283" data-name="Ellipse 283" cx="3.5" cy="3.5" r="3.5" transform="translate(49 74)" fill="#fff"/>
    <circle id="Ellipse_284" data-name="Ellipse 284" cx="3.5" cy="3.5" r="3.5" transform="translate(58 47)" fill="#7b45fd"/>
    <circle id="Ellipse_285" data-name="Ellipse 285" cx="3.5" cy="3.5" r="3.5" transform="translate(67 47)" fill="#fff"/>
    <circle id="Ellipse_286" data-name="Ellipse 286" cx="3.5" cy="3.5" r="3.5" transform="translate(58 56)" fill="#fff"/>
    <circle id="Ellipse_287" data-name="Ellipse 287" cx="3.5" cy="3.5" r="3.5" transform="translate(67 56)" fill="#fff"/>
    <circle id="Ellipse_288" data-name="Ellipse 288" cx="3.5" cy="3.5" r="3.5" transform="translate(58 65)" fill="#7b45fd"/>
    <circle id="Ellipse_289" data-name="Ellipse 289" cx="3.5" cy="3.5" r="3.5" transform="translate(67 65)" fill="#fff"/>
    <circle id="Ellipse_290" data-name="Ellipse 290" cx="3.5" cy="3.5" r="3.5" transform="translate(58 74)" fill="#fff"/>
    <circle id="Ellipse_291" data-name="Ellipse 291" cx="3.5" cy="3.5" r="3.5" transform="translate(67 74)" fill="#7b45fd"/>
    <circle id="Ellipse_292" data-name="Ellipse 292" cx="3.5" cy="3.5" r="3.5" transform="translate(40 38)" fill="#7b45fd"/>
    <circle id="Ellipse_293" data-name="Ellipse 293" cx="3.5" cy="3.5" r="3.5" transform="translate(49 38)" fill="#fff"/>
    <circle id="Ellipse_294" data-name="Ellipse 294" cx="3.5" cy="3.5" r="3.5" transform="translate(58 38)" fill="#fff"/>
    <circle id="Ellipse_295" data-name="Ellipse 295" cx="3.5" cy="3.5" r="3.5" transform="translate(67 38)" fill="#7b45fd"/>
    <circle id="Ellipse_296" data-name="Ellipse 296" cx="3.5" cy="3.5" r="3.5" transform="translate(40 47)" fill="#7b45fd"/>
    <circle id="Ellipse_297" data-name="Ellipse 297" cx="3.5" cy="3.5" r="3.5" transform="translate(40 56)" fill="#7b45fd"/>
    <circle id="Ellipse_298" data-name="Ellipse 298" cx="3.5" cy="3.5" r="3.5" transform="translate(40 65)" fill="#7b45fd"/>
    <circle id="Ellipse_299" data-name="Ellipse 299" cx="3.5" cy="3.5" r="3.5" transform="translate(40 74)" fill="#7b45fd"/>
    <circle id="Ellipse_300" data-name="Ellipse 300" cx="3.5" cy="3.5" r="3.5" transform="translate(40 38)" fill="#7b45fd"/>
    <circle id="Ellipse_301" data-name="Ellipse 301" cx="3.5" cy="3.5" r="3.5" transform="translate(76 47)" fill="#fff"/>
    <circle id="Ellipse_302" data-name="Ellipse 302" cx="3.5" cy="3.5" r="3.5" transform="translate(76 56)" fill="#fff"/>
    <circle id="Ellipse_303" data-name="Ellipse 303" cx="3.5" cy="3.5" r="3.5" transform="translate(76 65)" fill="#fff"/>
    <circle id="Ellipse_304" data-name="Ellipse 304" cx="3.5" cy="3.5" r="3.5" transform="translate(76 74)" fill="#fff"/>
    <circle id="Ellipse_305" data-name="Ellipse 305" cx="3.5" cy="3.5" r="3.5" transform="translate(76 38)" fill="#fff"/>
    <circle id="Ellipse_306" data-name="Ellipse 306" cx="3.5" cy="3.5" r="3.5" transform="translate(76 47)" fill="#fff"/>
    <circle id="Ellipse_307" data-name="Ellipse 307" cx="3.5" cy="3.5" r="3.5" transform="translate(76 56)" fill="#fff"/>
    <circle id="Ellipse_308" data-name="Ellipse 308" cx="3.5" cy="3.5" r="3.5" transform="translate(76 65)" fill="#fff"/>
    <circle id="Ellipse_309" data-name="Ellipse 309" cx="3.5" cy="3.5" r="3.5" transform="translate(76 74)" fill="#fff"/>
    <circle id="Ellipse_310" data-name="Ellipse 310" cx="3.5" cy="3.5" r="3.5" transform="translate(76 38)" fill="#fff"/>
    <circle id="Ellipse_311" data-name="Ellipse 311" cx="3.5" cy="3.5" r="3.5" transform="translate(31 47)" fill="#fff"/>
    <circle id="Ellipse_312" data-name="Ellipse 312" cx="3.5" cy="3.5" r="3.5" transform="translate(31 56)" fill="#fff"/>
    <circle id="Ellipse_313" data-name="Ellipse 313" cx="3.5" cy="3.5" r="3.5" transform="translate(31 65)" fill="#fff"/>
    <circle id="Ellipse_314" data-name="Ellipse 314" cx="3.5" cy="3.5" r="3.5" transform="translate(31 74)" fill="#fff"/>
    <circle id="Ellipse_315" data-name="Ellipse 315" cx="3.5" cy="3.5" r="3.5" transform="translate(31 38)" fill="#fff"/>
    <circle id="Ellipse_316" data-name="Ellipse 316" cx="3.5" cy="3.5" r="3.5" transform="translate(31 47)" fill="#fff"/>
    <circle id="Ellipse_317" data-name="Ellipse 317" cx="3.5" cy="3.5" r="3.5" transform="translate(31 56)" fill="#fff"/>
    <circle id="Ellipse_318" data-name="Ellipse 318" cx="3.5" cy="3.5" r="3.5" transform="translate(31 65)" fill="#fff"/>
    <circle id="Ellipse_319" data-name="Ellipse 319" cx="3.5" cy="3.5" r="3.5" transform="translate(31 74)" fill="#fff"/>
    <circle id="Ellipse_320" data-name="Ellipse 320" cx="3.5" cy="3.5" r="3.5" transform="translate(31 38)" fill="#fff"/>
    <circle id="Ellipse_321" data-name="Ellipse 321" cx="3.5" cy="3.5" r="3.5" transform="translate(74 83) rotate(90)" fill="#fff"/>
    <circle id="Ellipse_322" data-name="Ellipse 322" cx="3.5" cy="3.5" r="3.5" transform="translate(65 83) rotate(90)" fill="#fff"/>
    <circle id="Ellipse_323" data-name="Ellipse 323" cx="3.5" cy="3.5" r="3.5" transform="translate(56 83) rotate(90)" fill="#fff"/>
    <circle id="Ellipse_324" data-name="Ellipse 324" cx="3.5" cy="3.5" r="3.5" transform="translate(47 83) rotate(90)" fill="#fff"/>
    <circle id="Ellipse_325" data-name="Ellipse 325" cx="3.5" cy="3.5" r="3.5" transform="translate(83 83) rotate(90)" fill="#fff"/>
    <circle id="Ellipse_326" data-name="Ellipse 326" cx="3.5" cy="3.5" r="3.5" transform="translate(74 83) rotate(90)" fill="#fff"/>
    <circle id="Ellipse_327" data-name="Ellipse 327" cx="3.5" cy="3.5" r="3.5" transform="translate(65 83) rotate(90)" fill="#fff"/>
    <circle id="Ellipse_328" data-name="Ellipse 328" cx="3.5" cy="3.5" r="3.5" transform="translate(56 83) rotate(90)" fill="#fff"/>
    <circle id="Ellipse_329" data-name="Ellipse 329" cx="3.5" cy="3.5" r="3.5" transform="translate(47 83) rotate(90)" fill="#fff"/>
    <circle id="Ellipse_330" data-name="Ellipse 330" cx="3.5" cy="3.5" r="3.5" transform="translate(83 83) rotate(90)" fill="#fff"/>
    <circle id="Ellipse_331" data-name="Ellipse 331" cx="3.5" cy="3.5" r="3.5" transform="translate(31 83)" fill="#fff"/>
    <circle id="Ellipse_332" data-name="Ellipse 332" cx="3.5" cy="3.5" r="3.5" transform="translate(74 29) rotate(90)" fill="#fff"/>
    <circle id="Ellipse_333" data-name="Ellipse 333" cx="3.5" cy="3.5" r="3.5" transform="translate(65 29) rotate(90)" fill="#fff"/>
    <circle id="Ellipse_334" data-name="Ellipse 334" cx="3.5" cy="3.5" r="3.5" transform="translate(56 29) rotate(90)" fill="#fff"/>
    <circle id="Ellipse_335" data-name="Ellipse 335" cx="3.5" cy="3.5" r="3.5" transform="translate(47 29) rotate(90)" fill="#fff"/>
    <circle id="Ellipse_336" data-name="Ellipse 336" cx="3.5" cy="3.5" r="3.5" transform="translate(83 29) rotate(90)" fill="#fff"/>
    <circle id="Ellipse_337" data-name="Ellipse 337" cx="3.5" cy="3.5" r="3.5" transform="translate(74 29) rotate(90)" fill="#fff"/>
    <circle id="Ellipse_338" data-name="Ellipse 338" cx="3.5" cy="3.5" r="3.5" transform="translate(65 29) rotate(90)" fill="#fff"/>
    <circle id="Ellipse_339" data-name="Ellipse 339" cx="3.5" cy="3.5" r="3.5" transform="translate(56 29) rotate(90)" fill="#fff"/>
    <circle id="Ellipse_340" data-name="Ellipse 340" cx="3.5" cy="3.5" r="3.5" transform="translate(47 29) rotate(90)" fill="#fff"/>
    <circle id="Ellipse_341" data-name="Ellipse 341" cx="3.5" cy="3.5" r="3.5" transform="translate(83 29) rotate(90)" fill="#fff"/>
    <circle id="Ellipse_342" data-name="Ellipse 342" cx="3.5" cy="3.5" r="3.5" transform="translate(31 29)" fill="#fff"/>
  </g>
</svg>
