<svg xmlns="http://www.w3.org/2000/svg" width="331.188" height="329" viewBox="0 0 331.188 329">
  <g id="mid-img" transform="translate(-21.812 -242)">
    <circle id="Ellipse_343" data-name="Ellipse 343" cx="3.5" cy="3.5" r="3.5" transform="translate(181 242)" fill="#fd6145"/>
    <circle id="Ellipse_344" data-name="Ellipse 344" cx="3.5" cy="3.5" r="3.5" transform="translate(177 249)" fill="#fd6145"/>
    <circle id="Ellipse_345" data-name="Ellipse 345" cx="3.5" cy="3.5" r="3.5" transform="translate(185 249)" fill="#fd6145"/>
    <circle id="Ellipse_346" data-name="Ellipse 346" cx="3.5" cy="3.5" r="3.5" transform="translate(173 257)" fill="#fd6145"/>
    <circle id="Ellipse_347" data-name="Ellipse 347" cx="3.5" cy="3.5" r="3.5" transform="translate(181 257)" fill="#fd8845"/>
    <circle id="Ellipse_348" data-name="Ellipse 348" cx="3.5" cy="3.5" r="3.5" transform="translate(189 257)" fill="#fd6145"/>
    <circle id="Ellipse_349" data-name="Ellipse 349" cx="3.5" cy="3.5" r="3.5" transform="translate(176 265)" fill="#fd6145"/>
    <circle id="Ellipse_350" data-name="Ellipse 350" cx="3.5" cy="3.5" r="3.5" transform="translate(184 265)" fill="#fd8845"/>
    <circle id="Ellipse_351" data-name="Ellipse 351" cx="3.5" cy="3.5" r="3.5" transform="translate(192 265)" fill="#fd6145"/>
    <circle id="Ellipse_352" data-name="Ellipse 352" cx="3.5" cy="3.5" r="3.5" transform="translate(179 273)" fill="#fd6145"/>
    <circle id="Ellipse_353" data-name="Ellipse 353" cx="3.5" cy="3.5" r="3.5" transform="translate(187 273)" fill="#fd8845"/>
    <circle id="Ellipse_354" data-name="Ellipse 354" cx="3.5" cy="3.5" r="3.5" transform="translate(195 273)" fill="#fd6145"/>
    <circle id="Ellipse_355" data-name="Ellipse 355" cx="3.5" cy="3.5" r="3.5" transform="translate(182 281)" fill="#fd6145"/>
    <circle id="Ellipse_356" data-name="Ellipse 356" cx="3.5" cy="3.5" r="3.5" transform="translate(190 281)" fill="#fd8845"/>
    <circle id="Ellipse_357" data-name="Ellipse 357" cx="3.5" cy="3.5" r="3.5" transform="translate(198 281)" fill="#fd6145"/>
    <circle id="Ellipse_358" data-name="Ellipse 358" cx="3.5" cy="3.5" r="3.5" transform="translate(181 289)" fill="#fd6145"/>
    <circle id="Ellipse_359" data-name="Ellipse 359" cx="3.5" cy="3.5" r="3.5" transform="translate(189 289)" fill="#fd8845"/>
    <circle id="Ellipse_360" data-name="Ellipse 360" cx="3.5" cy="3.5" r="3.5" transform="translate(197 289)" fill="#fd6145"/>
    <circle id="Ellipse_361" data-name="Ellipse 361" cx="3.5" cy="3.5" r="3.5" transform="translate(178 297)" fill="#fd6145"/>
    <circle id="Ellipse_362" data-name="Ellipse 362" cx="3.5" cy="3.5" r="3.5" transform="translate(186 297)" fill="#fd8845"/>
    <circle id="Ellipse_363" data-name="Ellipse 363" cx="3.5" cy="3.5" r="3.5" transform="translate(194 297)" fill="#fd6145"/>
    <circle id="Ellipse_364" data-name="Ellipse 364" cx="3.5" cy="3.5" r="3.5" transform="translate(176 305)" fill="#fd6145"/>
    <circle id="Ellipse_365" data-name="Ellipse 365" cx="3.5" cy="3.5" r="3.5" transform="translate(184 305)" fill="#fd8845"/>
    <circle id="Ellipse_366" data-name="Ellipse 366" cx="3.5" cy="3.5" r="3.5" transform="translate(192 305)" fill="#fd6145"/>
    <circle id="Ellipse_367" data-name="Ellipse 367" cx="3.5" cy="3.5" r="3.5" transform="translate(179 313)" fill="#fd6145"/>
    <circle id="Ellipse_368" data-name="Ellipse 368" cx="3.5" cy="3.5" r="3.5" transform="translate(187 313)" fill="#fd8845"/>
    <circle id="Ellipse_369" data-name="Ellipse 369" cx="3.5" cy="3.5" r="3.5" transform="translate(195 313)" fill="#fd6145"/>
    <circle id="Ellipse_370" data-name="Ellipse 370" cx="3.5" cy="3.5" r="3.5" transform="translate(182 321)" fill="#fd6145"/>
    <circle id="Ellipse_371" data-name="Ellipse 371" cx="3.5" cy="3.5" r="3.5" transform="translate(190 321)" fill="#fd8845"/>
    <circle id="Ellipse_372" data-name="Ellipse 372" cx="3.5" cy="3.5" r="3.5" transform="translate(198 321)" fill="#fd6145"/>
    <circle id="Ellipse_373" data-name="Ellipse 373" cx="3.5" cy="3.5" r="3.5" transform="translate(181 329)" fill="#fd6145"/>
    <circle id="Ellipse_374" data-name="Ellipse 374" cx="3.5" cy="3.5" r="3.5" transform="translate(189 329)" fill="#fd8845"/>
    <circle id="Ellipse_375" data-name="Ellipse 375" cx="3.5" cy="3.5" r="3.5" transform="translate(197 329)" fill="#fd6145"/>
    <circle id="Ellipse_376" data-name="Ellipse 376" cx="3.5" cy="3.5" r="3.5" transform="translate(178 337)" fill="#fd6145"/>
    <circle id="Ellipse_377" data-name="Ellipse 377" cx="3.5" cy="3.5" r="3.5" transform="translate(186 337)" fill="#fd8845"/>
    <circle id="Ellipse_378" data-name="Ellipse 378" cx="3.5" cy="3.5" r="3.5" transform="translate(194 337)" fill="#fd6145"/>
    <circle id="Ellipse_379" data-name="Ellipse 379" cx="3.5" cy="3.5" r="3.5" transform="translate(300.88 285.944) rotate(75)" fill="#fd6145"/>
    <circle id="Ellipse_380" data-name="Ellipse 380" cx="3.5" cy="3.5" r="3.5" transform="translate(293.102 288.065) rotate(75)" fill="#fd6145"/>
    <circle id="Ellipse_381" data-name="Ellipse 381" cx="3.5" cy="3.5" r="3.5" transform="translate(298.759 293.722) rotate(75)" fill="#fd6145"/>
    <circle id="Ellipse_382" data-name="Ellipse 382" cx="3.5" cy="3.5" r="3.5" transform="translate(284.617 290.894) rotate(75)" fill="#fd6145"/>
    <circle id="Ellipse_383" data-name="Ellipse 383" cx="3.5" cy="3.5" r="3.5" transform="translate(290.274 296.55) rotate(75)" fill="#fd8845"/>
    <circle id="Ellipse_384" data-name="Ellipse 384" cx="3.5" cy="3.5" r="3.5" transform="translate(295.931 302.207) rotate(75)" fill="#fd6145"/>
    <circle id="Ellipse_385" data-name="Ellipse 385" cx="3.5" cy="3.5" r="3.5" transform="translate(281.082 298.672) rotate(75)" fill="#fd6145"/>
    <circle id="Ellipse_386" data-name="Ellipse 386" cx="3.5" cy="3.5" r="3.5" transform="translate(286.738 304.329) rotate(75)" fill="#fd8845"/>
    <circle id="Ellipse_387" data-name="Ellipse 387" cx="3.5" cy="3.5" r="3.5" transform="translate(292.395 309.985) rotate(75)" fill="#fd6145"/>
    <circle id="Ellipse_388" data-name="Ellipse 388" cx="3.5" cy="3.5" r="3.5" transform="translate(277.546 306.45) rotate(75)" fill="#fd6145"/>
    <circle id="Ellipse_389" data-name="Ellipse 389" cx="3.5" cy="3.5" r="3.5" transform="translate(283.203 312.107) rotate(75)" fill="#fd8845"/>
    <circle id="Ellipse_390" data-name="Ellipse 390" cx="3.5" cy="3.5" r="3.5" transform="translate(288.86 317.764) rotate(75)" fill="#fd6145"/>
    <circle id="Ellipse_391" data-name="Ellipse 391" cx="3.5" cy="3.5" r="3.5" transform="translate(274.01 314.228) rotate(75)" fill="#fd6145"/>
    <circle id="Ellipse_392" data-name="Ellipse 392" cx="3.5" cy="3.5" r="3.5" transform="translate(279.667 319.885) rotate(75)" fill="#fd8845"/>
    <circle id="Ellipse_393" data-name="Ellipse 393" cx="3.5" cy="3.5" r="3.5" transform="translate(285.324 325.542) rotate(75)" fill="#fd6145"/>
    <circle id="Ellipse_394" data-name="Ellipse 394" cx="3.5" cy="3.5" r="3.5" transform="translate(267.646 319.178) rotate(75)" fill="#fd6145"/>
    <circle id="Ellipse_395" data-name="Ellipse 395" cx="3.5" cy="3.5" r="3.5" transform="translate(273.303 324.835) rotate(75)" fill="#fd8845"/>
    <circle id="Ellipse_396" data-name="Ellipse 396" cx="3.5" cy="3.5" r="3.5" transform="translate(278.96 330.492) rotate(75)" fill="#fd6145"/>
    <circle id="Ellipse_397" data-name="Ellipse 397" cx="3.5" cy="3.5" r="3.5" transform="translate(259.868 322.713) rotate(75)" fill="#fd6145"/>
    <circle id="Ellipse_398" data-name="Ellipse 398" cx="3.5" cy="3.5" r="3.5" transform="translate(265.525 328.37) rotate(75)" fill="#fd8845"/>
    <circle id="Ellipse_399" data-name="Ellipse 399" cx="3.5" cy="3.5" r="3.5" transform="translate(271.182 334.027) rotate(75)" fill="#fd6145"/>
    <circle id="Ellipse_400" data-name="Ellipse 400" cx="3.5" cy="3.5" r="3.5" transform="translate(252.797 326.956) rotate(75)" fill="#fd6145"/>
    <circle id="Ellipse_401" data-name="Ellipse 401" cx="3.5" cy="3.5" r="3.5" transform="translate(258.454 332.613) rotate(75)" fill="#fd8845"/>
    <circle id="Ellipse_402" data-name="Ellipse 402" cx="3.5" cy="3.5" r="3.5" transform="translate(264.111 338.27) rotate(75)" fill="#fd6145"/>
    <circle id="Ellipse_403" data-name="Ellipse 403" cx="3.5" cy="3.5" r="3.5" transform="translate(249.262 334.734) rotate(75)" fill="#fd6145"/>
    <circle id="Ellipse_404" data-name="Ellipse 404" cx="3.5" cy="3.5" r="3.5" transform="translate(254.918 340.391) rotate(75)" fill="#fd8845"/>
    <circle id="Ellipse_405" data-name="Ellipse 405" cx="3.5" cy="3.5" r="3.5" transform="translate(260.575 346.048) rotate(75)" fill="#fd6145"/>
    <circle id="Ellipse_406" data-name="Ellipse 406" cx="3.5" cy="3.5" r="3.5" transform="translate(245.726 342.512) rotate(75)" fill="#fd6145"/>
    <circle id="Ellipse_407" data-name="Ellipse 407" cx="3.5" cy="3.5" r="3.5" transform="translate(251.383 348.169) rotate(75)" fill="#fd8845"/>
    <circle id="Ellipse_408" data-name="Ellipse 408" cx="3.5" cy="3.5" r="3.5" transform="translate(257.04 353.826) rotate(75)" fill="#fd6145"/>
    <circle id="Ellipse_409" data-name="Ellipse 409" cx="3.5" cy="3.5" r="3.5" transform="translate(239.362 347.462) rotate(75)" fill="#fd6145"/>
    <circle id="Ellipse_410" data-name="Ellipse 410" cx="3.5" cy="3.5" r="3.5" transform="translate(245.019 353.119) rotate(75)" fill="#fd8845"/>
    <circle id="Ellipse_411" data-name="Ellipse 411" cx="3.5" cy="3.5" r="3.5" transform="translate(250.676 358.776) rotate(75)" fill="#fd6145"/>
    <circle id="Ellipse_412" data-name="Ellipse 412" cx="3.5" cy="3.5" r="3.5" transform="translate(231.584 350.998) rotate(75)" fill="#fd6145"/>
    <circle id="Ellipse_413" data-name="Ellipse 413" cx="3.5" cy="3.5" r="3.5" transform="translate(237.241 356.655) rotate(75)" fill="#fd8845"/>
    <circle id="Ellipse_414" data-name="Ellipse 414" cx="3.5" cy="3.5" r="3.5" transform="translate(242.898 362.311) rotate(75)" fill="#fd6145"/>
    <circle id="Ellipse_343-2" data-name="Ellipse 343" cx="3.5" cy="3.5" r="3.5" transform="translate(353 399) rotate(90)" fill="#fd6145"/>
    <circle id="Ellipse_344-2" data-name="Ellipse 344" cx="3.5" cy="3.5" r="3.5" transform="translate(346 395) rotate(90)" fill="#fd6145"/>
    <circle id="Ellipse_345-2" data-name="Ellipse 345" cx="3.5" cy="3.5" r="3.5" transform="translate(346 403) rotate(90)" fill="#fd6145"/>
    <circle id="Ellipse_346-2" data-name="Ellipse 346" cx="3.5" cy="3.5" r="3.5" transform="translate(338 391) rotate(90)" fill="#fd6145"/>
    <circle id="Ellipse_347-2" data-name="Ellipse 347" cx="3.5" cy="3.5" r="3.5" transform="translate(338 399) rotate(90)" fill="#fd8845"/>
    <circle id="Ellipse_348-2" data-name="Ellipse 348" cx="3.5" cy="3.5" r="3.5" transform="translate(338 407) rotate(90)" fill="#fd6145"/>
    <circle id="Ellipse_349-2" data-name="Ellipse 349" cx="3.5" cy="3.5" r="3.5" transform="translate(330 394) rotate(90)" fill="#fd6145"/>
    <circle id="Ellipse_350-2" data-name="Ellipse 350" cx="3.5" cy="3.5" r="3.5" transform="translate(330 402) rotate(90)" fill="#fd8845"/>
    <circle id="Ellipse_351-2" data-name="Ellipse 351" cx="3.5" cy="3.5" r="3.5" transform="translate(330 410) rotate(90)" fill="#fd6145"/>
    <circle id="Ellipse_352-2" data-name="Ellipse 352" cx="3.5" cy="3.5" r="3.5" transform="translate(322 397) rotate(90)" fill="#fd6145"/>
    <circle id="Ellipse_353-2" data-name="Ellipse 353" cx="3.5" cy="3.5" r="3.5" transform="translate(322 405) rotate(90)" fill="#fd8845"/>
    <circle id="Ellipse_354-2" data-name="Ellipse 354" cx="3.5" cy="3.5" r="3.5" transform="translate(322 413) rotate(90)" fill="#fd6145"/>
    <circle id="Ellipse_355-2" data-name="Ellipse 355" cx="3.5" cy="3.5" r="3.5" transform="translate(314 400) rotate(90)" fill="#fd6145"/>
    <circle id="Ellipse_356-2" data-name="Ellipse 356" cx="3.5" cy="3.5" r="3.5" transform="translate(314 408) rotate(90)" fill="#fd8845"/>
    <circle id="Ellipse_357-2" data-name="Ellipse 357" cx="3.5" cy="3.5" r="3.5" transform="translate(314 416) rotate(90)" fill="#fd6145"/>
    <circle id="Ellipse_358-2" data-name="Ellipse 358" cx="3.5" cy="3.5" r="3.5" transform="translate(306 399) rotate(90)" fill="#fd6145"/>
    <circle id="Ellipse_359-2" data-name="Ellipse 359" cx="3.5" cy="3.5" r="3.5" transform="translate(306 407) rotate(90)" fill="#fd8845"/>
    <circle id="Ellipse_360-2" data-name="Ellipse 360" cx="3.5" cy="3.5" r="3.5" transform="translate(306 415) rotate(90)" fill="#fd6145"/>
    <circle id="Ellipse_361-2" data-name="Ellipse 361" cx="3.5" cy="3.5" r="3.5" transform="translate(298 396) rotate(90)" fill="#fd6145"/>
    <circle id="Ellipse_362-2" data-name="Ellipse 362" cx="3.5" cy="3.5" r="3.5" transform="translate(298 404) rotate(90)" fill="#fd8845"/>
    <circle id="Ellipse_363-2" data-name="Ellipse 363" cx="3.5" cy="3.5" r="3.5" transform="translate(298 412) rotate(90)" fill="#fd6145"/>
    <circle id="Ellipse_364-2" data-name="Ellipse 364" cx="3.5" cy="3.5" r="3.5" transform="translate(290 394) rotate(90)" fill="#fd6145"/>
    <circle id="Ellipse_365-2" data-name="Ellipse 365" cx="3.5" cy="3.5" r="3.5" transform="translate(290 402) rotate(90)" fill="#fd8845"/>
    <circle id="Ellipse_366-2" data-name="Ellipse 366" cx="3.5" cy="3.5" r="3.5" transform="translate(290 410) rotate(90)" fill="#fd6145"/>
    <circle id="Ellipse_367-2" data-name="Ellipse 367" cx="3.5" cy="3.5" r="3.5" transform="translate(282 397) rotate(90)" fill="#fd6145"/>
    <circle id="Ellipse_368-2" data-name="Ellipse 368" cx="3.5" cy="3.5" r="3.5" transform="translate(282 405) rotate(90)" fill="#fd8845"/>
    <circle id="Ellipse_369-2" data-name="Ellipse 369" cx="3.5" cy="3.5" r="3.5" transform="translate(282 413) rotate(90)" fill="#fd6145"/>
    <circle id="Ellipse_370-2" data-name="Ellipse 370" cx="3.5" cy="3.5" r="3.5" transform="translate(274 400) rotate(90)" fill="#fd6145"/>
    <circle id="Ellipse_371-2" data-name="Ellipse 371" cx="3.5" cy="3.5" r="3.5" transform="translate(274 408) rotate(90)" fill="#fd8845"/>
    <circle id="Ellipse_372-2" data-name="Ellipse 372" cx="3.5" cy="3.5" r="3.5" transform="translate(274 416) rotate(90)" fill="#fd6145"/>
    <circle id="Ellipse_373-2" data-name="Ellipse 373" cx="3.5" cy="3.5" r="3.5" transform="translate(266 399) rotate(90)" fill="#fd6145"/>
    <circle id="Ellipse_374-2" data-name="Ellipse 374" cx="3.5" cy="3.5" r="3.5" transform="translate(266 407) rotate(90)" fill="#fd8845"/>
    <circle id="Ellipse_375-2" data-name="Ellipse 375" cx="3.5" cy="3.5" r="3.5" transform="translate(266 415) rotate(90)" fill="#fd6145"/>
    <circle id="Ellipse_376-2" data-name="Ellipse 376" cx="3.5" cy="3.5" r="3.5" transform="translate(258 396) rotate(90)" fill="#fd6145"/>
    <circle id="Ellipse_377-2" data-name="Ellipse 377" cx="3.5" cy="3.5" r="3.5" transform="translate(258 404) rotate(90)" fill="#fd8845"/>
    <circle id="Ellipse_378-2" data-name="Ellipse 378" cx="3.5" cy="3.5" r="3.5" transform="translate(258 412) rotate(90)" fill="#fd6145"/>
    <circle id="Ellipse_343-3" data-name="Ellipse 343" cx="3.5" cy="3.5" r="3.5" transform="translate(198 571) rotate(180)" fill="#fd6145"/>
    <circle id="Ellipse_344-3" data-name="Ellipse 344" cx="3.5" cy="3.5" r="3.5" transform="translate(202 564) rotate(180)" fill="#fd6145"/>
    <circle id="Ellipse_345-3" data-name="Ellipse 345" cx="3.5" cy="3.5" r="3.5" transform="translate(194 564) rotate(180)" fill="#fd6145"/>
    <circle id="Ellipse_346-3" data-name="Ellipse 346" cx="3.5" cy="3.5" r="3.5" transform="translate(206 556) rotate(180)" fill="#fd6145"/>
    <circle id="Ellipse_347-3" data-name="Ellipse 347" cx="3.5" cy="3.5" r="3.5" transform="translate(198 556) rotate(180)" fill="#fd8845"/>
    <circle id="Ellipse_348-3" data-name="Ellipse 348" cx="3.5" cy="3.5" r="3.5" transform="translate(190 556) rotate(180)" fill="#fd6145"/>
    <circle id="Ellipse_349-3" data-name="Ellipse 349" cx="3.5" cy="3.5" r="3.5" transform="translate(203 548) rotate(180)" fill="#fd6145"/>
    <circle id="Ellipse_350-3" data-name="Ellipse 350" cx="3.5" cy="3.5" r="3.5" transform="translate(195 548) rotate(180)" fill="#fd8845"/>
    <circle id="Ellipse_351-3" data-name="Ellipse 351" cx="3.5" cy="3.5" r="3.5" transform="translate(187 548) rotate(180)" fill="#fd6145"/>
    <circle id="Ellipse_352-3" data-name="Ellipse 352" cx="3.5" cy="3.5" r="3.5" transform="translate(200 540) rotate(180)" fill="#fd6145"/>
    <circle id="Ellipse_353-3" data-name="Ellipse 353" cx="3.5" cy="3.5" r="3.5" transform="translate(192 540) rotate(180)" fill="#fd8845"/>
    <circle id="Ellipse_354-3" data-name="Ellipse 354" cx="3.5" cy="3.5" r="3.5" transform="translate(184 540) rotate(180)" fill="#fd6145"/>
    <circle id="Ellipse_355-3" data-name="Ellipse 355" cx="3.5" cy="3.5" r="3.5" transform="translate(197 532) rotate(180)" fill="#fd6145"/>
    <circle id="Ellipse_356-3" data-name="Ellipse 356" cx="3.5" cy="3.5" r="3.5" transform="translate(189 532) rotate(180)" fill="#fd8845"/>
    <circle id="Ellipse_357-3" data-name="Ellipse 357" cx="3.5" cy="3.5" r="3.5" transform="translate(181 532) rotate(180)" fill="#fd6145"/>
    <circle id="Ellipse_358-3" data-name="Ellipse 358" cx="3.5" cy="3.5" r="3.5" transform="translate(198 524) rotate(180)" fill="#fd6145"/>
    <circle id="Ellipse_359-3" data-name="Ellipse 359" cx="3.5" cy="3.5" r="3.5" transform="translate(190 524) rotate(180)" fill="#fd8845"/>
    <circle id="Ellipse_360-3" data-name="Ellipse 360" cx="3.5" cy="3.5" r="3.5" transform="translate(182 524) rotate(180)" fill="#fd6145"/>
    <circle id="Ellipse_361-3" data-name="Ellipse 361" cx="3.5" cy="3.5" r="3.5" transform="translate(201 516) rotate(180)" fill="#fd6145"/>
    <circle id="Ellipse_362-3" data-name="Ellipse 362" cx="3.5" cy="3.5" r="3.5" transform="translate(193 516) rotate(180)" fill="#fd8845"/>
    <circle id="Ellipse_363-3" data-name="Ellipse 363" cx="3.5" cy="3.5" r="3.5" transform="translate(185 516) rotate(180)" fill="#fd6145"/>
    <circle id="Ellipse_364-3" data-name="Ellipse 364" cx="3.5" cy="3.5" r="3.5" transform="translate(203 508) rotate(180)" fill="#fd6145"/>
    <circle id="Ellipse_365-3" data-name="Ellipse 365" cx="3.5" cy="3.5" r="3.5" transform="translate(195 508) rotate(180)" fill="#fd8845"/>
    <circle id="Ellipse_366-3" data-name="Ellipse 366" cx="3.5" cy="3.5" r="3.5" transform="translate(187 508) rotate(180)" fill="#fd6145"/>
    <circle id="Ellipse_367-3" data-name="Ellipse 367" cx="3.5" cy="3.5" r="3.5" transform="translate(200 500) rotate(180)" fill="#fd6145"/>
    <circle id="Ellipse_368-3" data-name="Ellipse 368" cx="3.5" cy="3.5" r="3.5" transform="translate(192 500) rotate(180)" fill="#fd8845"/>
    <circle id="Ellipse_369-3" data-name="Ellipse 369" cx="3.5" cy="3.5" r="3.5" transform="translate(184 500) rotate(180)" fill="#fd6145"/>
    <circle id="Ellipse_370-3" data-name="Ellipse 370" cx="3.5" cy="3.5" r="3.5" transform="translate(197 492) rotate(180)" fill="#fd6145"/>
    <circle id="Ellipse_371-3" data-name="Ellipse 371" cx="3.5" cy="3.5" r="3.5" transform="translate(189 492) rotate(180)" fill="#fd8845"/>
    <circle id="Ellipse_372-3" data-name="Ellipse 372" cx="3.5" cy="3.5" r="3.5" transform="translate(181 492) rotate(180)" fill="#fd6145"/>
    <circle id="Ellipse_373-3" data-name="Ellipse 373" cx="3.5" cy="3.5" r="3.5" transform="translate(198 484) rotate(180)" fill="#fd6145"/>
    <circle id="Ellipse_374-3" data-name="Ellipse 374" cx="3.5" cy="3.5" r="3.5" transform="translate(190 484) rotate(180)" fill="#fd8845"/>
    <circle id="Ellipse_375-3" data-name="Ellipse 375" cx="3.5" cy="3.5" r="3.5" transform="translate(182 484) rotate(180)" fill="#fd6145"/>
    <circle id="Ellipse_376-3" data-name="Ellipse 376" cx="3.5" cy="3.5" r="3.5" transform="translate(201 476) rotate(180)" fill="#fd6145"/>
    <circle id="Ellipse_377-3" data-name="Ellipse 377" cx="3.5" cy="3.5" r="3.5" transform="translate(193 476) rotate(180)" fill="#fd8845"/>
    <circle id="Ellipse_378-3" data-name="Ellipse 378" cx="3.5" cy="3.5" r="3.5" transform="translate(185 476) rotate(180)" fill="#fd6145"/>
    <circle id="Ellipse_343-4" data-name="Ellipse 343" cx="3.5" cy="3.5" r="3.5" transform="translate(309.719 518.405) rotate(135)" fill="#fd6145"/>
    <circle id="Ellipse_344-4" data-name="Ellipse 344" cx="3.5" cy="3.5" r="3.5" transform="translate(307.598 510.627) rotate(135)" fill="#fd6145"/>
    <circle id="Ellipse_345-4" data-name="Ellipse 345" cx="3.5" cy="3.5" r="3.5" transform="translate(301.941 516.284) rotate(135)" fill="#fd6145"/>
    <circle id="Ellipse_346-4" data-name="Ellipse 346" cx="3.5" cy="3.5" r="3.5" transform="translate(304.77 502.142) rotate(135)" fill="#fd6145"/>
    <circle id="Ellipse_347-4" data-name="Ellipse 347" cx="3.5" cy="3.5" r="3.5" transform="translate(299.113 507.799) rotate(135)" fill="#fd8845"/>
    <circle id="Ellipse_348-4" data-name="Ellipse 348" cx="3.5" cy="3.5" r="3.5" transform="translate(293.456 513.456) rotate(135)" fill="#fd6145"/>
    <circle id="Ellipse_349-4" data-name="Ellipse 349" cx="3.5" cy="3.5" r="3.5" transform="translate(296.991 498.606) rotate(135)" fill="#fd6145"/>
    <circle id="Ellipse_350-4" data-name="Ellipse 350" cx="3.5" cy="3.5" r="3.5" transform="translate(291.335 504.263) rotate(135)" fill="#fd8845"/>
    <circle id="Ellipse_351-4" data-name="Ellipse 351" cx="3.5" cy="3.5" r="3.5" transform="translate(285.678 509.92) rotate(135)" fill="#fd6145"/>
    <circle id="Ellipse_352-4" data-name="Ellipse 352" cx="3.5" cy="3.5" r="3.5" transform="translate(289.213 495.071) rotate(135)" fill="#fd6145"/>
    <circle id="Ellipse_353-4" data-name="Ellipse 353" cx="3.5" cy="3.5" r="3.5" transform="translate(283.556 500.728) rotate(135)" fill="#fd8845"/>
    <circle id="Ellipse_354-4" data-name="Ellipse 354" cx="3.5" cy="3.5" r="3.5" transform="translate(277.9 506.385) rotate(135)" fill="#fd6145"/>
    <circle id="Ellipse_355-4" data-name="Ellipse 355" cx="3.5" cy="3.5" r="3.5" transform="translate(281.435 491.535) rotate(135)" fill="#fd6145"/>
    <circle id="Ellipse_356-4" data-name="Ellipse 356" cx="3.5" cy="3.5" r="3.5" transform="translate(275.778 497.192) rotate(135)" fill="#fd8845"/>
    <circle id="Ellipse_357-4" data-name="Ellipse 357" cx="3.5" cy="3.5" r="3.5" transform="translate(270.121 502.849) rotate(135)" fill="#fd6145"/>
    <circle id="Ellipse_358-4" data-name="Ellipse 358" cx="3.5" cy="3.5" r="3.5" transform="translate(276.485 485.171) rotate(135)" fill="#fd6145"/>
    <circle id="Ellipse_359-4" data-name="Ellipse 359" cx="3.5" cy="3.5" r="3.5" transform="translate(270.828 490.828) rotate(135)" fill="#fd8845"/>
    <circle id="Ellipse_360-4" data-name="Ellipse 360" cx="3.5" cy="3.5" r="3.5" transform="translate(265.172 496.485) rotate(135)" fill="#fd6145"/>
    <circle id="Ellipse_361-4" data-name="Ellipse 361" cx="3.5" cy="3.5" r="3.5" transform="translate(272.95 477.393) rotate(135)" fill="#fd6145"/>
    <circle id="Ellipse_362-4" data-name="Ellipse 362" cx="3.5" cy="3.5" r="3.5" transform="translate(267.293 483.05) rotate(135)" fill="#fd8845"/>
    <circle id="Ellipse_363-4" data-name="Ellipse 363" cx="3.5" cy="3.5" r="3.5" transform="translate(261.636 488.707) rotate(135)" fill="#fd6145"/>
    <circle id="Ellipse_364-4" data-name="Ellipse 364" cx="3.5" cy="3.5" r="3.5" transform="translate(268.707 470.322) rotate(135)" fill="#fd6145"/>
    <circle id="Ellipse_365-4" data-name="Ellipse 365" cx="3.5" cy="3.5" r="3.5" transform="translate(263.05 475.979) rotate(135)" fill="#fd8845"/>
    <circle id="Ellipse_366-4" data-name="Ellipse 366" cx="3.5" cy="3.5" r="3.5" transform="translate(257.394 481.636) rotate(135)" fill="#fd6145"/>
    <circle id="Ellipse_367-4" data-name="Ellipse 367" cx="3.5" cy="3.5" r="3.5" transform="translate(260.929 466.786) rotate(135)" fill="#fd6145"/>
    <circle id="Ellipse_368-4" data-name="Ellipse 368" cx="3.5" cy="3.5" r="3.5" transform="translate(255.272 472.443) rotate(135)" fill="#fd8845"/>
    <circle id="Ellipse_369-4" data-name="Ellipse 369" cx="3.5" cy="3.5" r="3.5" transform="translate(249.615 478.1) rotate(135)" fill="#fd6145"/>
    <circle id="Ellipse_370-4" data-name="Ellipse 370" cx="3.5" cy="3.5" r="3.5" transform="translate(253.151 463.251) rotate(135)" fill="#fd6145"/>
    <circle id="Ellipse_371-4" data-name="Ellipse 371" cx="3.5" cy="3.5" r="3.5" transform="translate(247.494 468.908) rotate(135)" fill="#fd8845"/>
    <circle id="Ellipse_372-4" data-name="Ellipse 372" cx="3.5" cy="3.5" r="3.5" transform="translate(241.837 474.565) rotate(135)" fill="#fd6145"/>
    <circle id="Ellipse_373-4" data-name="Ellipse 373" cx="3.5" cy="3.5" r="3.5" transform="translate(248.201 456.887) rotate(135)" fill="#fd6145"/>
    <circle id="Ellipse_374-4" data-name="Ellipse 374" cx="3.5" cy="3.5" r="3.5" transform="translate(242.544 462.544) rotate(135)" fill="#fd8845"/>
    <circle id="Ellipse_375-4" data-name="Ellipse 375" cx="3.5" cy="3.5" r="3.5" transform="translate(236.887 468.201) rotate(135)" fill="#fd6145"/>
    <circle id="Ellipse_376-4" data-name="Ellipse 376" cx="3.5" cy="3.5" r="3.5" transform="translate(244.666 449.109) rotate(135)" fill="#fd6145"/>
    <circle id="Ellipse_377-4" data-name="Ellipse 377" cx="3.5" cy="3.5" r="3.5" transform="translate(239.009 454.766) rotate(135)" fill="#fd8845"/>
    <circle id="Ellipse_378-4" data-name="Ellipse 378" cx="3.5" cy="3.5" r="3.5" transform="translate(233.352 460.423) rotate(135)" fill="#fd6145"/>
    <circle id="Ellipse_379-2" data-name="Ellipse 379" cx="3.5" cy="3.5" r="3.5" transform="translate(80.693 287.756) rotate(105)" fill="#fd6145"/>
    <circle id="Ellipse_380-2" data-name="Ellipse 380" cx="3.5" cy="3.5" r="3.5" transform="translate(88.471 289.877) rotate(105)" fill="#fd6145"/>
    <circle id="Ellipse_381-2" data-name="Ellipse 381" cx="3.5" cy="3.5" r="3.5" transform="translate(82.814 295.534) rotate(105)" fill="#fd6145"/>
    <circle id="Ellipse_382-2" data-name="Ellipse 382" cx="3.5" cy="3.5" r="3.5" transform="translate(96.957 292.705) rotate(105)" fill="#fd6145"/>
    <circle id="Ellipse_383-2" data-name="Ellipse 383" cx="3.5" cy="3.5" r="3.5" transform="translate(91.3 298.362) rotate(105)" fill="#fd8845"/>
    <circle id="Ellipse_384-2" data-name="Ellipse 384" cx="3.5" cy="3.5" r="3.5" transform="translate(85.643 304.019) rotate(105)" fill="#fd6145"/>
    <circle id="Ellipse_385-2" data-name="Ellipse 385" cx="3.5" cy="3.5" r="3.5" transform="translate(100.492 300.483) rotate(105)" fill="#fd6145"/>
    <circle id="Ellipse_386-2" data-name="Ellipse 386" cx="3.5" cy="3.5" r="3.5" transform="translate(94.835 306.14) rotate(105)" fill="#fd8845"/>
    <circle id="Ellipse_387-2" data-name="Ellipse 387" cx="3.5" cy="3.5" r="3.5" transform="translate(89.178 311.797) rotate(105)" fill="#fd6145"/>
    <circle id="Ellipse_388-2" data-name="Ellipse 388" cx="3.5" cy="3.5" r="3.5" transform="translate(104.028 308.262) rotate(105)" fill="#fd6145"/>
    <circle id="Ellipse_389-2" data-name="Ellipse 389" cx="3.5" cy="3.5" r="3.5" transform="translate(98.371 313.919) rotate(105)" fill="#fd8845"/>
    <circle id="Ellipse_390-2" data-name="Ellipse 390" cx="3.5" cy="3.5" r="3.5" transform="translate(92.714 319.575) rotate(105)" fill="#fd6145"/>
    <circle id="Ellipse_391-2" data-name="Ellipse 391" cx="3.5" cy="3.5" r="3.5" transform="translate(107.563 316.04) rotate(105)" fill="#fd6145"/>
    <circle id="Ellipse_392-2" data-name="Ellipse 392" cx="3.5" cy="3.5" r="3.5" transform="translate(101.906 321.697) rotate(105)" fill="#fd8845"/>
    <circle id="Ellipse_393-2" data-name="Ellipse 393" cx="3.5" cy="3.5" r="3.5" transform="translate(96.25 327.354) rotate(105)" fill="#fd6145"/>
    <circle id="Ellipse_394-2" data-name="Ellipse 394" cx="3.5" cy="3.5" r="3.5" transform="translate(113.927 320.99) rotate(105)" fill="#fd6145"/>
    <circle id="Ellipse_395-2" data-name="Ellipse 395" cx="3.5" cy="3.5" r="3.5" transform="translate(108.27 326.646) rotate(105)" fill="#fd8845"/>
    <circle id="Ellipse_396-2" data-name="Ellipse 396" cx="3.5" cy="3.5" r="3.5" transform="translate(102.613 332.303) rotate(105)" fill="#fd6145"/>
    <circle id="Ellipse_397-2" data-name="Ellipse 397" cx="3.5" cy="3.5" r="3.5" transform="translate(121.705 324.525) rotate(105)" fill="#fd6145"/>
    <circle id="Ellipse_398-2" data-name="Ellipse 398" cx="3.5" cy="3.5" r="3.5" transform="translate(116.048 330.182) rotate(105)" fill="#fd8845"/>
    <circle id="Ellipse_399-2" data-name="Ellipse 399" cx="3.5" cy="3.5" r="3.5" transform="translate(110.392 335.839) rotate(105)" fill="#fd6145"/>
    <circle id="Ellipse_400-2" data-name="Ellipse 400" cx="3.5" cy="3.5" r="3.5" transform="translate(128.776 328.768) rotate(105)" fill="#fd6145"/>
    <circle id="Ellipse_401-2" data-name="Ellipse 401" cx="3.5" cy="3.5" r="3.5" transform="translate(123.12 334.425) rotate(105)" fill="#fd8845"/>
    <circle id="Ellipse_402-2" data-name="Ellipse 402" cx="3.5" cy="3.5" r="3.5" transform="translate(117.463 340.081) rotate(105)" fill="#fd6145"/>
    <circle id="Ellipse_403-2" data-name="Ellipse 403" cx="3.5" cy="3.5" r="3.5" transform="translate(132.312 336.546) rotate(105)" fill="#fd6145"/>
    <circle id="Ellipse_404-2" data-name="Ellipse 404" cx="3.5" cy="3.5" r="3.5" transform="translate(126.655 342.203) rotate(105)" fill="#fd8845"/>
    <circle id="Ellipse_405-2" data-name="Ellipse 405" cx="3.5" cy="3.5" r="3.5" transform="translate(120.998 347.86) rotate(105)" fill="#fd6145"/>
    <circle id="Ellipse_406-2" data-name="Ellipse 406" cx="3.5" cy="3.5" r="3.5" transform="translate(135.847 344.324) rotate(105)" fill="#fd6145"/>
    <circle id="Ellipse_407-2" data-name="Ellipse 407" cx="3.5" cy="3.5" r="3.5" transform="translate(130.191 349.981) rotate(105)" fill="#fd8845"/>
    <circle id="Ellipse_408-2" data-name="Ellipse 408" cx="3.5" cy="3.5" r="3.5" transform="translate(124.534 355.638) rotate(105)" fill="#fd6145"/>
    <circle id="Ellipse_409-2" data-name="Ellipse 409" cx="3.5" cy="3.5" r="3.5" transform="translate(142.211 349.274) rotate(105)" fill="#fd6145"/>
    <circle id="Ellipse_410-2" data-name="Ellipse 410" cx="3.5" cy="3.5" r="3.5" transform="translate(136.555 354.931) rotate(105)" fill="#fd8845"/>
    <circle id="Ellipse_411-2" data-name="Ellipse 411" cx="3.5" cy="3.5" r="3.5" transform="translate(130.898 360.588) rotate(105)" fill="#fd6145"/>
    <circle id="Ellipse_412-2" data-name="Ellipse 412" cx="3.5" cy="3.5" r="3.5" transform="translate(149.99 352.809) rotate(105)" fill="#fd6145"/>
    <circle id="Ellipse_413-2" data-name="Ellipse 413" cx="3.5" cy="3.5" r="3.5" transform="translate(144.333 358.466) rotate(105)" fill="#fd8845"/>
    <circle id="Ellipse_414-2" data-name="Ellipse 414" cx="3.5" cy="3.5" r="3.5" transform="translate(138.676 364.123) rotate(105)" fill="#fd6145"/>
    <ellipse id="Ellipse_343-5" data-name="Ellipse 343" cx="3.5" cy="3.5" rx="3.5" ry="3.5" transform="translate(28.812 399) rotate(90)" fill="#fd6145"/>
    <ellipse id="Ellipse_344-5" data-name="Ellipse 344" cx="3.5" cy="3.5" rx="3.5" ry="3.5" transform="translate(35.812 395) rotate(90)" fill="#fd6145"/>
    <ellipse id="Ellipse_345-5" data-name="Ellipse 345" cx="3.5" cy="3.5" rx="3.5" ry="3.5" transform="translate(35.812 403) rotate(90)" fill="#fd6145"/>
    <ellipse id="Ellipse_346-5" data-name="Ellipse 346" cx="3.5" cy="3.5" rx="3.5" ry="3.5" transform="translate(43.812 391) rotate(90)" fill="#fd6145"/>
    <ellipse id="Ellipse_347-5" data-name="Ellipse 347" cx="3.5" cy="3.5" rx="3.5" ry="3.5" transform="translate(43.812 399) rotate(90)" fill="#fd8845"/>
    <ellipse id="Ellipse_348-5" data-name="Ellipse 348" cx="3.5" cy="3.5" rx="3.5" ry="3.5" transform="translate(43.812 407) rotate(90)" fill="#fd6145"/>
    <ellipse id="Ellipse_349-5" data-name="Ellipse 349" cx="3.5" cy="3.5" rx="3.5" ry="3.5" transform="translate(51.812 394) rotate(90)" fill="#fd6145"/>
    <ellipse id="Ellipse_350-5" data-name="Ellipse 350" cx="3.5" cy="3.5" rx="3.5" ry="3.5" transform="translate(51.812 402) rotate(90)" fill="#fd8845"/>
    <ellipse id="Ellipse_351-5" data-name="Ellipse 351" cx="3.5" cy="3.5" rx="3.5" ry="3.5" transform="translate(51.812 410) rotate(90)" fill="#fd6145"/>
    <ellipse id="Ellipse_352-5" data-name="Ellipse 352" cx="3.5" cy="3.5" rx="3.5" ry="3.5" transform="translate(59.812 397) rotate(90)" fill="#fd6145"/>
    <ellipse id="Ellipse_353-5" data-name="Ellipse 353" cx="3.5" cy="3.5" rx="3.5" ry="3.5" transform="translate(59.812 405) rotate(90)" fill="#fd8845"/>
    <ellipse id="Ellipse_354-5" data-name="Ellipse 354" cx="3.5" cy="3.5" rx="3.5" ry="3.5" transform="translate(59.812 413) rotate(90)" fill="#fd6145"/>
    <ellipse id="Ellipse_355-5" data-name="Ellipse 355" cx="3.5" cy="3.5" rx="3.5" ry="3.5" transform="translate(67.812 400) rotate(90)" fill="#fd6145"/>
    <ellipse id="Ellipse_356-5" data-name="Ellipse 356" cx="3.5" cy="3.5" rx="3.5" ry="3.5" transform="translate(67.812 408) rotate(90)" fill="#fd8845"/>
    <ellipse id="Ellipse_357-5" data-name="Ellipse 357" cx="3.5" cy="3.5" rx="3.5" ry="3.5" transform="translate(67.812 416) rotate(90)" fill="#fd6145"/>
    <ellipse id="Ellipse_358-5" data-name="Ellipse 358" cx="3.5" cy="3.5" rx="3.5" ry="3.5" transform="translate(75.812 399) rotate(90)" fill="#fd6145"/>
    <ellipse id="Ellipse_359-5" data-name="Ellipse 359" cx="3.5" cy="3.5" rx="3.5" ry="3.5" transform="translate(75.812 407) rotate(90)" fill="#fd8845"/>
    <ellipse id="Ellipse_360-5" data-name="Ellipse 360" cx="3.5" cy="3.5" rx="3.5" ry="3.5" transform="translate(75.812 415) rotate(90)" fill="#fd6145"/>
    <ellipse id="Ellipse_361-5" data-name="Ellipse 361" cx="3.5" cy="3.5" rx="3.5" ry="3.5" transform="translate(83.812 396) rotate(90)" fill="#fd6145"/>
    <ellipse id="Ellipse_362-5" data-name="Ellipse 362" cx="3.5" cy="3.5" rx="3.5" ry="3.5" transform="translate(83.812 404) rotate(90)" fill="#fd8845"/>
    <ellipse id="Ellipse_363-5" data-name="Ellipse 363" cx="3.5" cy="3.5" rx="3.5" ry="3.5" transform="translate(83.812 412) rotate(90)" fill="#fd6145"/>
    <ellipse id="Ellipse_364-5" data-name="Ellipse 364" cx="3.5" cy="3.5" rx="3.5" ry="3.5" transform="translate(91.812 394) rotate(90)" fill="#fd6145"/>
    <ellipse id="Ellipse_365-5" data-name="Ellipse 365" cx="3.5" cy="3.5" rx="3.5" ry="3.5" transform="translate(91.812 402) rotate(90)" fill="#fd8845"/>
    <ellipse id="Ellipse_366-5" data-name="Ellipse 366" cx="3.5" cy="3.5" rx="3.5" ry="3.5" transform="translate(91.812 410) rotate(90)" fill="#fd6145"/>
    <ellipse id="Ellipse_367-5" data-name="Ellipse 367" cx="3.5" cy="3.5" rx="3.5" ry="3.5" transform="translate(99.812 397) rotate(90)" fill="#fd6145"/>
    <ellipse id="Ellipse_368-5" data-name="Ellipse 368" cx="3.5" cy="3.5" rx="3.5" ry="3.5" transform="translate(99.812 405) rotate(90)" fill="#fd8845"/>
    <ellipse id="Ellipse_369-5" data-name="Ellipse 369" cx="3.5" cy="3.5" rx="3.5" ry="3.5" transform="translate(99.812 413) rotate(90)" fill="#fd6145"/>
    <ellipse id="Ellipse_370-5" data-name="Ellipse 370" cx="3.5" cy="3.5" rx="3.5" ry="3.5" transform="translate(107.812 400) rotate(90)" fill="#fd6145"/>
    <ellipse id="Ellipse_371-5" data-name="Ellipse 371" cx="3.5" cy="3.5" rx="3.5" ry="3.5" transform="translate(107.812 408) rotate(90)" fill="#fd8845"/>
    <ellipse id="Ellipse_372-5" data-name="Ellipse 372" cx="3.5" cy="3.5" rx="3.5" ry="3.5" transform="translate(107.812 416) rotate(90)" fill="#fd6145"/>
    <ellipse id="Ellipse_373-5" data-name="Ellipse 373" cx="3.5" cy="3.5" rx="3.5" ry="3.5" transform="translate(115.812 399) rotate(90)" fill="#fd6145"/>
    <ellipse id="Ellipse_374-5" data-name="Ellipse 374" cx="3.5" cy="3.5" rx="3.5" ry="3.5" transform="translate(115.812 407) rotate(90)" fill="#fd8845"/>
    <ellipse id="Ellipse_375-5" data-name="Ellipse 375" cx="3.5" cy="3.5" rx="3.5" ry="3.5" transform="translate(115.812 415) rotate(90)" fill="#fd6145"/>
    <ellipse id="Ellipse_376-5" data-name="Ellipse 376" cx="3.5" cy="3.5" rx="3.5" ry="3.5" transform="translate(123.812 396) rotate(90)" fill="#fd6145"/>
    <ellipse id="Ellipse_377-5" data-name="Ellipse 377" cx="3.5" cy="3.5" rx="3.5" ry="3.5" transform="translate(123.812 404) rotate(90)" fill="#fd8845"/>
    <ellipse id="Ellipse_378-5" data-name="Ellipse 378" cx="3.5" cy="3.5" rx="3.5" ry="3.5" transform="translate(123.812 412) rotate(90)" fill="#fd6145"/>
    <circle id="Ellipse_343-6" data-name="Ellipse 343" cx="3.5" cy="3.5" r="3.5" transform="translate(70.042 513.456) rotate(45)" fill="#fd6145"/>
    <circle id="Ellipse_344-6" data-name="Ellipse 344" cx="3.5" cy="3.5" r="3.5" transform="translate(72.164 505.677) rotate(45)" fill="#fd6145"/>
    <circle id="Ellipse_345-6" data-name="Ellipse 345" cx="3.5" cy="3.5" r="3.5" transform="translate(77.821 511.334) rotate(45)" fill="#fd6145"/>
    <circle id="Ellipse_346-6" data-name="Ellipse 346" cx="3.5" cy="3.5" r="3.5" transform="translate(74.992 497.192) rotate(45)" fill="#fd6145"/>
    <circle id="Ellipse_347-6" data-name="Ellipse 347" cx="3.5" cy="3.5" r="3.5" transform="translate(80.649 502.849) rotate(45)" fill="#fd8845"/>
    <circle id="Ellipse_348-6" data-name="Ellipse 348" cx="3.5" cy="3.5" r="3.5" transform="translate(86.306 508.506) rotate(45)" fill="#fd6145"/>
    <circle id="Ellipse_349-6" data-name="Ellipse 349" cx="3.5" cy="3.5" r="3.5" transform="translate(82.77 493.656) rotate(45)" fill="#fd6145"/>
    <circle id="Ellipse_350-6" data-name="Ellipse 350" cx="3.5" cy="3.5" r="3.5" transform="translate(88.427 499.313) rotate(45)" fill="#fd8845"/>
    <circle id="Ellipse_351-6" data-name="Ellipse 351" cx="3.5" cy="3.5" r="3.5" transform="translate(94.084 504.97) rotate(45)" fill="#fd6145"/>
    <circle id="Ellipse_352-6" data-name="Ellipse 352" cx="3.5" cy="3.5" r="3.5" transform="translate(90.549 490.121) rotate(45)" fill="#fd6145"/>
    <circle id="Ellipse_353-6" data-name="Ellipse 353" cx="3.5" cy="3.5" r="3.5" transform="translate(96.205 495.778) rotate(45)" fill="#fd8845"/>
    <circle id="Ellipse_354-6" data-name="Ellipse 354" cx="3.5" cy="3.5" r="3.5" transform="translate(101.862 501.435) rotate(45)" fill="#fd6145"/>
    <circle id="Ellipse_355-6" data-name="Ellipse 355" cx="3.5" cy="3.5" r="3.5" transform="translate(98.327 486.585) rotate(45)" fill="#fd6145"/>
    <circle id="Ellipse_356-6" data-name="Ellipse 356" cx="3.5" cy="3.5" r="3.5" transform="translate(103.984 492.242) rotate(45)" fill="#fd8845"/>
    <circle id="Ellipse_357-6" data-name="Ellipse 357" cx="3.5" cy="3.5" r="3.5" transform="translate(109.64 497.899) rotate(45)" fill="#fd6145"/>
    <circle id="Ellipse_358-6" data-name="Ellipse 358" cx="3.5" cy="3.5" r="3.5" transform="translate(103.276 480.221) rotate(45)" fill="#fd6145"/>
    <circle id="Ellipse_359-6" data-name="Ellipse 359" cx="3.5" cy="3.5" r="3.5" transform="translate(108.933 485.878) rotate(45)" fill="#fd8845"/>
    <circle id="Ellipse_360-6" data-name="Ellipse 360" cx="3.5" cy="3.5" r="3.5" transform="translate(114.59 491.535) rotate(45)" fill="#fd6145"/>
    <circle id="Ellipse_361-6" data-name="Ellipse 361" cx="3.5" cy="3.5" r="3.5" transform="translate(106.812 472.443) rotate(45)" fill="#fd6145"/>
    <circle id="Ellipse_362-6" data-name="Ellipse 362" cx="3.5" cy="3.5" r="3.5" transform="translate(112.469 478.1) rotate(45)" fill="#fd8845"/>
    <circle id="Ellipse_363-6" data-name="Ellipse 363" cx="3.5" cy="3.5" r="3.5" transform="translate(118.126 483.757) rotate(45)" fill="#fd6145"/>
    <circle id="Ellipse_364-6" data-name="Ellipse 364" cx="3.5" cy="3.5" r="3.5" transform="translate(111.055 465.372) rotate(45)" fill="#fd6145"/>
    <circle id="Ellipse_365-6" data-name="Ellipse 365" cx="3.5" cy="3.5" r="3.5" transform="translate(116.711 471.029) rotate(45)" fill="#fd8845"/>
    <circle id="Ellipse_366-6" data-name="Ellipse 366" cx="3.5" cy="3.5" r="3.5" transform="translate(122.368 476.686) rotate(45)" fill="#fd6145"/>
    <circle id="Ellipse_367-6" data-name="Ellipse 367" cx="3.5" cy="3.5" r="3.5" transform="translate(118.833 461.837) rotate(45)" fill="#fd6145"/>
    <circle id="Ellipse_368-6" data-name="Ellipse 368" cx="3.5" cy="3.5" r="3.5" transform="translate(124.49 467.494) rotate(45)" fill="#fd8845"/>
    <circle id="Ellipse_369-6" data-name="Ellipse 369" cx="3.5" cy="3.5" r="3.5" transform="translate(130.146 473.15) rotate(45)" fill="#fd6145"/>
    <circle id="Ellipse_370-6" data-name="Ellipse 370" cx="3.5" cy="3.5" r="3.5" transform="translate(126.611 458.301) rotate(45)" fill="#fd6145"/>
    <circle id="Ellipse_371-6" data-name="Ellipse 371" cx="3.5" cy="3.5" r="3.5" transform="translate(132.268 463.958) rotate(45)" fill="#fd8845"/>
    <circle id="Ellipse_372-6" data-name="Ellipse 372" cx="3.5" cy="3.5" r="3.5" transform="translate(137.925 469.615) rotate(45)" fill="#fd6145"/>
    <circle id="Ellipse_373-6" data-name="Ellipse 373" cx="3.5" cy="3.5" r="3.5" transform="translate(131.561 451.937) rotate(45)" fill="#fd6145"/>
    <circle id="Ellipse_374-6" data-name="Ellipse 374" cx="3.5" cy="3.5" r="3.5" transform="translate(137.218 457.594) rotate(45)" fill="#fd8845"/>
    <circle id="Ellipse_375-6" data-name="Ellipse 375" cx="3.5" cy="3.5" r="3.5" transform="translate(142.874 463.251) rotate(45)" fill="#fd6145"/>
    <circle id="Ellipse_376-6" data-name="Ellipse 376" cx="3.5" cy="3.5" r="3.5" transform="translate(135.096 444.159) rotate(45)" fill="#fd6145"/>
    <circle id="Ellipse_377-6" data-name="Ellipse 377" cx="3.5" cy="3.5" r="3.5" transform="translate(140.753 449.816) rotate(45)" fill="#fd8845"/>
    <circle id="Ellipse_378-6" data-name="Ellipse 378" cx="3.5" cy="3.5" r="3.5" transform="translate(146.41 455.473) rotate(45)" fill="#fd6145"/>
    <circle id="Ellipse_415" data-name="Ellipse 415" cx="62.5" cy="62.5" r="62.5" transform="translate(126 344)" fill="#fd8845"/>
    <circle id="Ellipse_416" data-name="Ellipse 416" cx="50" cy="50" r="50" transform="translate(138 356)" fill="#fdb345"/>
    <circle id="Ellipse_417" data-name="Ellipse 417" cx="37.5" cy="37.5" r="37.5" transform="translate(150 369)" fill="#fdd845"/>
    <circle id="Ellipse_418" data-name="Ellipse 418" cx="25" cy="25" r="25" transform="translate(163 381)" fill="#fdeb45"/>
    <circle id="Ellipse_419" data-name="Ellipse 419" cx="12.5" cy="12.5" r="12.5" transform="translate(175 394)" fill="#fdfd45"/>
  </g>
</svg>
